<svg width="16" height="16" viewBox="0 0 16 16" fill="none" xmlns="http://www.w3.org/2000/svg">
<path fill-rule="evenodd" clip-rule="evenodd" d="M16 0H0V16H16V0ZM4 6.91825C4 4.75772 5.79439 3 8 3C10.2056 3 12 4.75772 12 6.91825C12 9.59953 8.42039 13.5358 8.26799 13.7021C8.1251 13.858 7.87516 13.8582 7.73201 13.7021C7.57961 13.5358 4 9.59953 4 6.91825ZM5.98752 6.91825C5.98752 8.00527 6.8903 8.88963 8 8.88963C9.10968 8.88963 10.0125 8.00529 10.0125 6.91827C10.0125 5.83125 9.10968 4.94689 8 4.94689C6.89032 4.94689 5.98752 5.83122 5.98752 6.91825Z" fill="#EF8538"/>
</svg>
