<svg width="50" height="34" viewBox="0 0 50 34" xmlns="http://www.w3.org/2000/svg">
<path d="M47.0561 20.3594C46.7474 20.0976 46.2854 20.1358 46.0237 20.4442C45.7621 20.7527 45.8 21.215 46.1086 21.4765C47.6939 22.821 48.533 24.3258 48.5352 25.8283C48.5366 26.8369 48.175 27.6895 47.4296 28.4348C46.1832 29.6813 43.864 30.6097 40.5363 31.1946C37.5491 31.7195 33.808 31.9743 29.0957 31.9649C21.8204 31.955 16.6882 31.3254 13.4771 30.0454C14.714 29.1653 16.0373 28.1089 17.4564 26.8693C17.886 27.3833 18.502 27.7229 19.1924 27.7926C20.6264 27.9375 21.9168 26.8758 22.0552 25.4334C22.1477 24.4689 22.1497 23.4976 22.0625 22.5406C23.3481 21.258 24.5078 20.0472 25.5502 18.8988C26.1373 19.9037 26.5416 20.9627 26.7535 22.0584C26.9345 22.992 26.9791 23.9586 26.886 24.9315C26.7485 26.3729 27.8014 27.6633 29.2387 27.8085C30.6691 27.9531 31.9493 26.8996 32.0893 25.4473C32.2314 23.9728 32.1627 22.4971 31.885 21.0611C31.592 19.5486 31.0649 18.0883 30.316 16.704C31.7225 16.7479 33.0981 16.8623 34.4261 17.0443C35.6488 18.5937 36.4029 20.2809 36.6661 22.0636C36.805 23.0045 36.8062 23.9719 36.6693 24.939C36.4667 26.3729 37.4607 27.7094 38.8859 27.9186C40.3 28.1261 41.6409 27.1344 41.845 25.6906C42.0527 24.2209 42.0501 22.7437 41.837 21.3002C41.7088 20.4319 41.5025 19.5727 41.2215 18.7315C41.95 19.0112 42.6444 19.3173 43.2981 19.65C43.6531 19.8306 44.0973 19.6944 44.283 19.3293C44.4665 18.9689 44.323 18.5279 43.9624 18.3444C39.9373 16.2959 34.373 15.1669 28.6537 15.2203C29.0479 14.7095 29.4149 14.2118 29.7553 13.7263C31.9005 10.6662 32.9434 8.15835 32.9434 6.05972C32.9434 4.61675 32.4414 3.38442 31.4516 2.39731C29.3805 0.331787 25.8741 0.00629878 21.5787 1.48062C17.4587 2.89468 13.0444 5.81284 9.14922 9.69741C3.50586 15.3255 0 21.934 0 26.944C0 29.0216 0.63252 30.7506 1.8293 31.9441C2.82197 32.934 4.04268 33.4289 5.48193 33.4288C7.00557 33.4288 8.77412 32.8743 10.7762 31.7656C11.1865 31.5383 11.6079 31.2872 12.0402 31.0132C15.3804 32.6274 20.9674 33.4188 29.0937 33.4297C33.7386 33.436 37.7856 33.1653 40.7898 32.6374C44.4708 31.9905 46.9814 30.9546 48.4653 29.4707C49.4856 28.4503 50.002 27.2242 49.9999 25.8262C49.9972 23.8808 48.9792 21.9905 47.0561 20.3594ZM39.4189 18.1149C39.89 19.2136 40.217 20.3552 40.3881 21.5141C40.5807 22.8186 40.5829 24.1548 40.3947 25.4855C40.3047 26.1224 39.7256 26.5612 39.0981 26.4691C38.4685 26.3768 38.0297 25.7823 38.1198 25.1441C38.2763 24.0379 38.2747 22.9295 38.1152 21.8497C37.8839 20.2824 37.3252 18.786 36.452 17.3815C37.4806 17.584 38.4727 17.8289 39.4189 18.1149ZM20.5971 25.2936C20.5399 25.8914 20.0513 26.3418 19.4593 26.3418C19.0968 26.3418 18.7681 26.1755 18.5509 25.8941C19.2326 25.2751 19.9356 24.616 20.6608 23.9161C20.6617 24.375 20.6411 24.8351 20.5971 25.2936ZM30.4469 21.3393C30.6979 22.6373 30.76 23.972 30.6313 25.3073C30.5697 25.9459 30.0107 26.4142 29.3803 26.3505C28.7478 26.2867 28.2831 25.7125 28.3443 25.0709C28.4507 23.9584 28.3993 22.8512 28.1918 21.7799C27.9193 20.3714 27.3734 19.02 26.568 17.7543C26.8749 17.4017 27.1707 17.0548 27.4546 16.714C27.8383 16.6995 28.2255 16.6888 28.6147 16.685C29.5155 18.1477 30.1316 19.7117 30.4469 21.3393ZM18.5203 4.42778C19.6295 4.87153 20.667 5.44722 21.6064 6.14497C22.6649 6.9313 23.6113 7.87446 24.4193 8.94849C24.7805 9.42857 24.7231 10.0906 24.286 10.4884C23.7839 10.9454 22.9811 10.8629 22.5693 10.3156C21.8978 9.4228 21.1129 8.64019 20.2366 7.9894C18.9654 7.04526 17.5131 6.38228 15.9036 6.00659C16.774 5.4229 17.6487 4.89497 18.5203 4.42778ZM4.14941 18.5457C5.29268 18.9407 6.3667 19.4742 7.34834 20.1371C8.44102 20.8751 9.42891 21.775 10.2845 22.812C10.6671 23.2757 10.64 23.9404 10.2212 24.358C9.74102 24.8368 8.93584 24.7903 8.5002 24.2624C7.78906 23.4005 6.96982 22.6537 6.06524 22.0427C5.15996 21.4313 4.15996 20.9556 3.08604 20.6187C3.39941 19.9351 3.75449 19.2424 4.14941 18.5457ZM10.0666 30.4841C6.76689 32.3115 4.41084 32.4499 2.86367 30.9069C1.93545 29.9812 1.46484 28.6479 1.46484 26.944C1.46484 25.4475 1.83486 23.7571 2.51592 21.9756C3.50498 22.2721 4.42148 22.7003 5.24531 23.2567C6.0335 23.789 6.74844 24.4411 7.37022 25.1947C8.35234 26.385 10.1685 26.4791 11.2556 25.3951C12.2124 24.441 12.2807 22.9296 11.4143 21.8796C10.4693 20.7345 9.37725 19.7399 8.16816 18.9233C7.16406 18.2452 6.07314 17.6912 4.91729 17.2661C5.51758 16.3155 6.18633 15.3637 6.91797 14.4239C8.41416 14.5083 10.462 14.8956 12.3506 16.1711C13.1389 16.7034 13.8537 17.3554 14.4754 18.1089C15.3986 19.2279 17.0562 19.3924 18.1691 18.4826C19.2902 17.5662 19.4401 15.9095 18.5195 14.794C17.9377 14.0888 17.2935 13.4343 16.6048 12.8487C16.2968 12.5868 15.8344 12.624 15.5724 12.9322C15.3103 13.2403 15.3477 13.7026 15.6559 13.9646C16.2791 14.4946 16.8624 15.0873 17.3896 15.7262C17.7988 16.2223 17.7327 16.947 17.2418 17.3484C16.7495 17.7509 16.0153 17.6738 15.6052 17.1765C14.894 16.3147 14.0749 15.5679 13.1703 14.9571C11.6867 13.955 9.93184 13.3102 8.03262 13.0588C8.61357 12.3792 9.22588 11.71 9.86719 11.0559C10.9531 11.3143 11.9906 11.6891 12.9557 12.1741C13.3112 12.3528 13.7551 12.2144 13.939 11.8486C14.1206 11.4872 13.9749 11.0469 13.6135 10.8653C12.8104 10.4617 11.9624 10.1287 11.0821 9.86626C12.1072 8.90366 13.162 8.01138 14.2317 7.20015C16.1913 7.4314 17.9168 8.09116 19.3631 9.16528C20.1267 9.73247 20.8115 10.4158 21.3987 11.1962C22.3266 12.4295 24.1394 12.6025 25.2718 11.5719C26.2715 10.6622 26.4082 9.15581 25.5898 8.06792C24.6975 6.88169 23.6511 5.83911 22.4798 4.96909C21.7752 4.44585 21.0219 3.98423 20.2284 3.58814C20.8424 3.3144 21.4521 3.073 22.0545 2.86616C23.6787 2.30864 25.1574 2.03149 26.4467 2.03149C28.125 2.03149 29.4818 2.50142 30.4175 3.43452C31.1316 4.14673 31.4788 5.00542 31.4788 6.05972C31.4788 7.82241 30.4955 10.1189 28.5561 12.8855C27.5867 14.2682 26.3692 15.8833 25.1168 17.1867C20.7527 21.7282 15.4667 27.4935 10.0666 30.4841Z"/>
</svg>
