<svg width="50" height="50" viewBox="0 0 50 50" xmlns="http://www.w3.org/2000/svg">
<path d="M11.9128 31.4166C11.9191 31.4166 11.9252 31.4167 11.9315 31.4167C13.0302 31.4167 13.9389 30.4308 13.847 29.3339C13.7942 28.7034 13.8274 28.0716 13.9458 27.4563C14.0761 26.7792 14.3066 26.1299 14.6314 25.5206C15.7214 25.587 16.8092 25.087 17.4419 24.1214C18.354 22.7295 19.4247 21.4292 20.6243 20.257C21.6919 19.2137 22.8604 18.2731 24.0979 17.4616C25.058 16.8318 25.557 15.7498 25.4985 14.6725C26.2042 14.334 26.9539 14.1035 27.732 13.9865C28.2714 13.9064 28.8192 13.8819 29.3604 13.9131C30.451 13.9762 31.42 13.07 31.4035 11.975L31.3944 11.0967L35.4531 10.8751C37.5038 10.7637 39.0942 9.06792 39.0736 7.01408C39.0543 5.12577 37.6849 3.55075 35.8179 3.269L31.3053 2.58677L31.2982 1.90306C31.2933 0.771992 30.2597 -0.124018 29.1451 0.0132886C27.1642 0.257433 25.1878 0.64738 23.2703 1.17258C21.0821 1.77279 18.9356 2.55864 16.8816 3.50631C15.9331 3.04009 14.7935 3.07955 13.8566 3.67008C13.1473 4.11706 12.4442 4.59998 11.7668 5.10536C11.4426 5.34726 11.3759 5.80625 11.6178 6.13047C11.8597 6.4547 12.3185 6.5214 12.6429 6.2795C13.2896 5.79697 13.9607 5.33603 14.6377 4.90946C15.2908 4.49793 16.1311 4.59256 16.6813 5.13964C18.0204 6.4713 19.3005 7.89417 20.486 9.36861C21.6595 10.8281 22.7687 12.3737 23.7832 13.9627C24.2679 14.7219 24.0487 15.742 23.2946 16.2367C21.9784 17.0999 20.7356 18.1001 19.6006 19.2093C18.3254 20.4555 17.187 21.8379 16.2169 23.3184C15.7164 24.0822 14.7195 24.2982 13.9476 23.8105C12.3278 22.7868 10.7557 21.6618 9.27498 20.4667C7.82174 19.2939 6.42201 18.0255 5.11447 16.697C4.57354 16.1474 4.48096 15.3106 4.88917 14.6621C6.09319 12.7494 7.51997 10.9563 9.12986 9.33267C9.42342 9.03657 9.72694 8.74253 10.0317 8.45863C10.3278 8.18295 10.3443 7.71956 10.0686 7.42346C9.79306 7.12736 9.32957 7.11086 9.03347 7.38655C8.71443 7.68362 8.39684 7.99134 8.08961 8.30121C6.40433 10.0008 4.91036 11.8783 3.64921 13.8817C3.05946 14.8185 3.02303 15.9611 3.49237 16.9106C2.65252 18.7838 1.93717 20.7277 1.36744 22.6963C0.757955 24.8031 0.303456 26.9704 0.0167324 29.1378C-0.131317 30.257 0.767623 31.3002 1.90329 31.312C2.12936 31.3144 2.35554 31.3168 2.58162 31.319L3.26278 35.8236C3.54442 37.6908 5.11906 39.0603 7.00708 39.0797C9.05642 39.1008 10.7579 37.5151 10.8689 35.4594L11.0896 31.408C11.3642 31.4108 11.6384 31.4137 11.9128 31.4166ZM35.5991 4.71756C36.7517 4.89149 37.5969 5.86367 37.6088 7.02902C37.6215 8.29672 36.6398 9.34371 35.3735 9.41246L31.379 9.63053L31.3208 4.07077L35.5991 4.71756ZM21.6275 8.45082C20.5377 7.09523 19.3696 5.78252 18.1503 4.5408C19.9312 3.75817 21.7785 3.10074 23.6576 2.5854C25.5069 2.07885 27.4134 1.70267 29.3235 1.46732C29.6334 1.42913 29.8169 1.61097 29.8334 1.91791L29.9389 11.9899C29.9371 12.3073 29.699 12.4655 29.4452 12.4508C28.804 12.4135 28.1553 12.4427 27.5153 12.5378C26.6656 12.6656 25.8458 12.9084 25.0685 13.2587C24.0591 11.5846 22.8434 9.96315 21.6275 8.45082ZM9.40633 35.3799C9.33787 36.6457 8.28815 37.6279 7.02211 37.6149C5.85706 37.6029 4.88527 36.7578 4.71134 35.6051L4.06553 31.3347C5.9179 31.3538 7.77056 31.3732 9.62342 31.3927L9.40633 35.3799ZM1.91901 29.8471C1.60797 29.8439 1.42828 29.6384 1.4691 29.33C1.74625 27.235 2.18552 25.1401 2.77478 23.1034C3.25721 21.4366 3.84794 19.788 4.53243 18.1874C5.74485 19.3875 7.02807 20.5359 8.35485 21.6067C9.87919 22.837 11.4976 23.9951 13.1649 25.0488C13.1807 25.0589 13.1971 25.0672 13.213 25.0769C12.8851 25.7438 12.6482 26.4481 12.5075 27.1794C12.3637 27.9261 12.3234 28.6922 12.3875 29.4571C12.4137 29.7684 12.2377 29.9516 11.9325 29.9516C11.931 29.9516 11.9293 29.9516 11.9278 29.9515C8.59069 29.9165 5.25461 29.8814 1.91901 29.8471ZM48.097 18.6869C47.8709 18.6846 47.6447 18.6821 47.4186 18.6799L46.7375 14.1752C46.4541 12.2939 44.8557 10.919 42.9538 10.919C40.9175 10.919 39.2421 12.5021 39.1314 14.5396L38.9107 18.591C38.6195 18.5907 38.3746 18.5868 38.0875 18.5824C38.0814 18.5823 38.0752 18.5823 38.069 18.5823C36.959 18.5823 36.0608 19.5608 36.1533 20.6651C36.2062 21.2956 36.173 21.9273 36.0546 22.5426C35.9243 23.2198 35.6938 23.869 35.369 24.4781C34.2841 24.4125 33.191 24.9124 32.5585 25.8777C31.6462 27.2697 30.5756 28.5698 29.3761 29.742C28.3086 30.7852 27.1399 31.7257 25.9026 32.5373C24.9424 33.1671 24.4434 34.2492 24.502 35.3264C23.7963 35.6648 23.0467 35.8954 22.2684 36.0125C21.7291 36.0928 21.1812 36.1174 20.6401 36.0858C19.5406 36.0217 18.5809 36.9232 18.5968 38.0239L18.606 38.9023L14.5472 39.1239C12.4965 39.2353 10.9062 40.9311 10.9268 42.9849C10.9461 44.8733 12.3156 46.4483 14.1825 46.7299L18.695 47.4122L18.7022 48.0958C18.7059 49.2147 19.7374 50.1233 20.8552 49.9856C22.8364 49.7416 24.8128 49.3516 26.73 48.8263C28.9186 48.2261 31.0653 47.4403 33.1192 46.4926C34.0836 46.9659 35.2198 46.9113 36.1439 46.3289C38.222 45.0194 40.1622 43.4612 41.9107 41.6977C42.1956 41.4105 42.1936 40.9468 41.9063 40.662C41.6191 40.3772 41.1555 40.3791 40.8706 40.6665C39.2003 42.3511 37.3472 43.8393 35.363 45.0898C34.7098 45.5013 33.8695 45.4065 33.3193 44.8595C31.9804 43.5281 30.7003 42.1052 29.5147 40.6304C28.3411 39.1709 27.2318 37.6253 26.2174 36.0364C25.7327 35.2772 25.9519 34.257 26.706 33.7624C28.0222 32.899 29.265 31.899 30.4 30.7899C31.6751 29.5437 32.8135 28.1612 33.7837 26.6807C34.2842 25.9168 35.281 25.7008 36.053 26.1886C37.6727 27.2121 39.2448 28.3372 40.7257 29.5324C42.1784 30.705 43.5783 31.9733 44.8862 33.3021C45.4271 33.8518 45.5198 34.6885 45.1115 35.3371C44.4977 36.3121 43.8179 37.2672 43.0911 38.1755C42.8385 38.4913 42.8897 38.9523 43.2055 39.205C43.5214 39.4577 43.9824 39.4065 44.235 39.0907C44.996 38.1393 45.7081 37.1391 46.3511 36.1176C46.9409 35.1808 46.9773 34.0382 46.508 33.0885C47.3478 31.2153 48.0632 29.2716 48.6329 27.3029C49.2424 25.1961 49.6969 23.0288 49.9836 20.8615C50.1329 19.732 49.2272 18.6986 48.097 18.6869ZM14.4012 45.2814C13.2488 45.1075 12.4035 44.1355 12.3915 42.9699C12.3788 41.7022 13.3606 40.6553 14.6268 40.5866L18.6213 40.3685L18.6795 45.9282L14.4012 45.2814ZM28.3729 41.5481C29.463 42.904 30.631 44.2166 31.85 45.4581C30.0693 46.2408 28.222 46.8982 26.3428 47.4135C24.4939 47.92 22.5874 48.2962 20.6769 48.5316C20.3721 48.5692 20.1821 48.3897 20.167 48.081L20.0616 38.009C20.0643 37.6972 20.3026 37.5334 20.5551 37.5481C21.1963 37.5856 21.8451 37.5562 22.4851 37.4611C23.3349 37.3332 24.1546 37.0904 24.9319 36.7402C25.9467 38.4229 27.1528 40.0304 28.3729 41.5481ZM40.5941 14.6191C40.6629 13.353 41.7078 12.3697 42.9783 12.384C44.1434 12.396 45.1152 13.2412 45.2891 14.394L45.9349 18.6644C44.0825 18.6451 42.2298 18.6258 40.377 18.6063L40.5941 14.6191ZM48.5314 20.669C48.2542 22.764 47.8149 24.859 47.2257 26.8955C46.7432 28.5625 46.1525 30.2109 45.468 31.8115C44.2553 30.6112 42.9721 29.4629 41.6456 28.3923C40.1211 27.1618 38.5027 26.0036 36.8356 24.9501C36.8197 24.9401 36.8036 24.9312 36.7877 24.9216C37.1156 24.2549 37.3523 23.5508 37.493 22.8195C37.6368 22.0728 37.6771 21.3068 37.6129 20.5417C37.5877 20.2408 37.7679 20.0549 38.0727 20.0473C40.9769 19.9744 43.8823 20.1083 46.7861 20.1382H46.7867H46.7869C47.2183 20.1426 47.65 20.1473 48.0813 20.1517C48.3984 20.1549 48.572 20.3622 48.5314 20.669Z"/>
</svg>
