<svg width="76" height="80" viewBox="0 0 76 80" xmlns="http://www.w3.org/2000/svg">
<path d="M34.4841 56.1272V71.1338C34.4841 73.0723 36.0611 74.6493 37.9997 74.6493C39.9383 74.6493 41.5153 73.0723 41.5153 71.1338V56.1272C41.5153 54.1886 39.9383 52.6117 37.9997 52.6117C36.0611 52.6117 34.4841 54.1886 34.4841 56.1272ZM39.1716 56.1272V71.1338C39.1716 71.78 38.6459 72.3056 37.9997 72.3056C37.3534 72.3056 36.8278 71.78 36.8278 71.1338V56.1272C36.8278 55.4809 37.3534 54.9553 37.9997 54.9553C38.6459 54.9553 39.1716 55.4809 39.1716 56.1272ZM52.6048 52.6539C50.708 52.3576 48.8758 53.692 48.5886 55.5849L46.2448 70.5915C45.9398 72.4706 47.2787 74.311 49.1758 74.6073C51.0755 74.904 52.902 73.5945 53.1919 71.6763L55.5356 56.6697C55.8411 54.7718 54.4869 52.9478 52.6048 52.6539ZM53.22 56.3079L50.8762 71.3146C50.7775 71.946 50.1677 72.3902 49.5377 72.2916C48.9078 72.193 48.4592 71.5824 48.5606 70.953L50.9044 55.9464C50.9891 55.3835 51.493 54.9552 52.0598 54.9552C52.76 54.9552 53.3358 55.6075 53.22 56.3079ZM68.5436 27.5021C68.4022 27.4438 68.3086 27.324 68.2931 27.1814C67.4964 19.7537 63.9922 12.8919 58.4258 7.86003C52.8186 2.79146 45.5645 0 37.9997 0C31.0839 0 24.3116 2.38069 18.9306 6.70335C18.4261 7.10865 18.3456 7.84628 18.7509 8.35079C19.1564 8.85515 19.8937 8.93592 20.3984 8.53031C25.4369 4.48296 31.5233 2.34366 37.9997 2.34366C44.9825 2.34366 51.6784 4.92013 56.8541 9.59871C61.9928 14.2439 65.2277 20.5771 65.9628 27.4313C66.0695 28.4268 66.7164 29.2842 67.6509 29.6692C71.1434 31.1081 73.417 34.6144 73.3084 38.3939C73.2411 40.7354 72.2756 42.9431 70.59 44.6106C68.9044 46.2778 66.6858 47.2197 64.3431 47.2625C61.6253 47.3119 59.0398 46.1594 57.2584 44.0998C56.735 43.4945 55.9767 43.1475 55.1777 43.1475C54.3889 43.1475 53.6425 43.4889 53.1303 44.0837C51.3903 46.1047 48.8655 47.2639 46.2028 47.2639C43.8459 47.2639 41.608 46.3685 39.9012 44.7423C38.8348 43.7261 37.1642 43.7264 36.0983 44.7423C34.3914 46.3685 32.1534 47.2639 29.7966 47.2639C27.1339 47.2639 24.6091 46.1047 22.8694 44.0837C21.7975 42.8384 19.8069 42.8677 18.7414 44.0998C16.9601 46.1596 14.3825 47.3128 11.6566 47.2625C9.3139 47.2197 7.09531 46.2778 5.40968 44.6106C3.7239 42.9431 2.75843 40.7354 2.69124 38.3939C2.58265 34.6142 4.85609 31.1079 8.34859 29.6691C9.28312 29.2841 9.92999 28.4266 10.0367 27.4313C10.6377 21.829 12.8887 16.5897 16.5467 12.2799C16.9655 11.7864 16.905 11.0469 16.4116 10.6282C15.9181 10.2095 15.1786 10.2701 14.7598 10.7634C10.7967 15.4327 8.35765 21.11 7.7064 27.1815C7.69109 27.324 7.59749 27.4438 7.45593 27.5021C3.06827 29.3097 0.212024 33.7139 0.348431 38.4613C0.433118 41.4079 1.64531 44.1835 3.76156 46.2768C5.43796 47.935 7.53734 49.0187 9.80296 49.4252L14.9002 75.2707C15.4397 78.0093 17.8572 79.9971 20.6484 79.9971H55.3516C58.1427 79.9971 60.5602 78.0093 61.0998 75.2709L63.1953 64.6461C63.3205 64.0111 62.9073 63.3949 62.2723 63.2696C61.6369 63.1443 61.0211 63.5577 60.8958 64.1925L58.8003 74.8174C58.4761 76.4608 57.0258 77.6534 55.3512 77.6534H20.6481C18.9736 77.6534 17.5231 76.4608 17.1994 74.8174L12.2262 49.6005C15.4183 49.4916 18.4106 48.065 20.5141 45.6326C20.6895 45.4296 20.9322 45.4255 21.0931 45.6124C23.2784 48.1514 26.4509 49.6074 29.7967 49.6074C32.7584 49.6074 35.5705 48.4821 37.7152 46.4389C37.8775 46.2843 38.1222 46.2843 38.2847 46.4389C40.4292 48.4821 43.2414 49.6074 46.203 49.6074C49.5487 49.6074 52.7211 48.1512 54.9066 45.6124C54.9931 45.5118 55.1091 45.4935 55.1775 45.4908C55.247 45.4908 55.3791 45.5093 55.4855 45.6324C57.5889 48.0647 60.5827 49.4915 63.7733 49.6004L61.9764 58.7115C61.8512 59.3464 62.2644 59.9627 62.8994 60.088C63.5187 60.2101 64.1511 59.8061 64.2759 59.165L66.1969 49.4251C68.4625 49.0184 70.5619 47.9347 72.2383 46.2766C74.3544 44.1835 75.5666 41.4079 75.6514 38.4611C75.7875 33.7139 72.9313 29.3097 68.5436 27.5021ZM46.4241 20.3399C49.1308 20.3399 51.3328 18.1379 51.3328 15.4313C51.3328 12.7247 49.1308 10.5227 46.4241 10.5227C43.7173 10.5227 41.5153 12.7247 41.5153 15.4313C41.5153 18.1379 43.7173 20.3399 46.4241 20.3399ZM46.4241 12.8664C47.8384 12.8664 48.9891 14.017 48.9891 15.4313C48.9891 16.8456 47.8384 17.9962 46.4241 17.9962C45.0097 17.9962 43.8591 16.8455 43.8591 15.4313C43.8591 14.0171 45.0097 12.8664 46.4241 12.8664ZM29.8784 10.5227C27.1717 10.5227 24.9697 12.7247 24.9697 15.4313C24.9697 18.1379 27.1717 20.3399 29.8784 20.3399C32.5852 20.3399 34.7872 18.1379 34.7872 15.4313C34.7872 12.7247 32.5852 10.5227 29.8784 10.5227ZM29.8784 17.9962C28.4641 17.9962 27.3134 16.8456 27.3134 15.4313C27.3134 14.017 28.4641 12.8664 29.8784 12.8664C31.2928 12.8664 32.4434 14.017 32.4434 15.4313C32.4434 16.8456 31.2928 17.9962 29.8784 17.9962ZM57.2653 35.6581C59.972 35.6581 62.1741 33.4561 62.1741 30.7495C62.1741 28.0429 59.972 25.8409 57.2653 25.8409C54.5586 25.8409 52.3566 28.0429 52.3566 30.7495C52.3566 33.4561 54.5586 35.6581 57.2653 35.6581ZM57.2653 28.1846C58.6797 28.1846 59.8303 29.3352 59.8303 30.7495C59.8303 32.1638 58.6797 33.3144 57.2653 33.3144C55.8509 33.3144 54.7003 32.1638 54.7003 30.7495C54.7003 29.3352 55.8509 28.1846 57.2653 28.1846ZM13.8253 30.7495C13.8253 33.4561 16.0273 35.6581 18.7341 35.6581C21.4408 35.6581 23.6428 33.4561 23.6428 30.7495C23.6428 28.0429 21.4408 25.8409 18.7341 25.8409C16.0273 25.8409 13.8253 28.0429 13.8253 30.7495ZM18.7341 28.1846C20.1484 28.1846 21.2991 29.3352 21.2991 30.7495C21.2991 32.1638 20.1484 33.3144 18.7341 33.3144C17.3197 33.3144 16.1691 32.1638 16.1691 30.7495C16.1691 29.3352 17.3197 28.1846 18.7341 28.1846ZM37.9997 30.08C35.293 30.08 33.0909 32.2819 33.0909 34.9886C33.0909 37.6952 35.293 39.897 37.9997 39.897C40.7064 39.897 42.9084 37.695 42.9084 34.9884C42.9084 32.2818 40.7064 30.08 37.9997 30.08ZM37.9997 37.5533C36.5853 37.5533 35.4347 36.4027 35.4347 34.9884C35.4347 33.5741 36.5853 32.4235 37.9997 32.4235C39.4141 32.4235 40.5647 33.5741 40.5647 34.9884C40.5647 36.4027 39.4141 37.5533 37.9997 37.5533ZM23.3947 52.6539C21.4958 52.9504 20.1598 54.7763 20.4636 56.6697L22.8073 71.6763C23.0764 73.3992 24.5359 74.6496 26.278 74.6496C28.3837 74.6496 30.0937 72.6769 29.7544 70.5913L27.4106 55.5847C27.1237 53.6865 25.2808 52.3593 23.3947 52.6539ZM26.278 72.306C25.7078 72.306 25.2112 71.8797 25.123 71.3146L22.7792 56.3079C22.6775 55.678 23.1264 55.0683 23.7564 54.9694C24.3789 54.8716 25.0008 55.3145 25.0948 55.9464L27.4386 70.953C27.5514 71.6469 26.9822 72.306 26.278 72.306Z"/>
</svg>
