<svg width="35" height="35" viewBox="0 0 35 35" xmlns="http://www.w3.org/2000/svg">
<g>
<path d="M20.3305 17.5C20.3305 19.063 19.0632 20.3302 17.5002 20.3302C15.9372 20.3302 14.6699 19.063 14.6699 17.5C14.6699 15.9369 15.9372 14.6697 17.5002 14.6697C19.0632 14.6697 20.3305 15.9369 20.3305 17.5Z"/>
<path d="M22.28 8.94652H12.72C10.639 8.94652 8.94629 10.6393 8.94629 12.7202V22.2802C8.94629 24.3612 10.639 26.0539 12.72 26.0539H22.28C24.3609 26.0539 26.0537 24.3612 26.0537 22.2802V12.7202C26.0537 10.6393 24.3609 8.94652 22.28 8.94652ZM17.5 22.2173C14.8989 22.2173 12.7829 20.1013 12.7829 17.5002C12.7829 14.8992 14.8989 12.7831 17.5 12.7831C20.101 12.7831 22.2171 14.8992 22.2171 17.5002C22.2171 20.1013 20.101 22.2173 17.5 22.2173ZM22.9089 13.0347C22.3879 13.0347 21.9655 12.6124 21.9655 12.0913C21.9655 11.5702 22.3879 11.1478 22.9089 11.1478C23.43 11.1478 23.8524 11.5702 23.8524 12.0913C23.8524 12.6124 23.43 13.0347 22.9089 13.0347Z" />
<path fill-rule="evenodd" clip-rule="evenodd" d="M35 0H0V35H35V0ZM11.3376 6.33736C8.57622 6.33736 6.33765 8.57594 6.33765 11.3374V23.8715C6.33765 26.6329 8.57622 28.8715 11.3376 28.8715H23.8718C26.6332 28.8715 28.8718 26.6329 28.8718 23.8715V11.3374C28.8718 8.57594 26.6332 6.33736 23.8718 6.33736H11.3376Z"/>
</g>
</svg>
