<svg width="126" height="50" viewBox="0 0 126 50" fill="none" xmlns="http://www.w3.org/2000/svg">
<path d="M0.294 46V45.146H1.008C1.19467 45.146 1.33467 45.0807 1.428 44.95C1.53067 44.8193 1.582 44.656 1.582 44.46V37.614C1.582 37.2873 1.52133 37.082 1.4 36.998C1.27867 36.9047 1.13867 36.858 0.98 36.858H0.294V36.004H8.596L8.638 38.678H7.476L7.406 37.978C7.36867 37.6047 7.28467 37.3433 7.154 37.194C7.02333 37.0447 6.79467 36.97 6.468 36.97H4.368V40.302H7.672V41.254H4.368V45.034H6.874C7.17267 45.034 7.39667 44.9453 7.546 44.768C7.70467 44.5813 7.80733 44.334 7.854 44.026L7.966 43.326H9.114L9.016 46H0.294ZM10.9453 46V45.146H11.0433C11.2859 45.146 11.5006 45.0853 11.6873 44.964C11.8833 44.8427 12.0559 44.5813 12.2053 44.18L15.1873 36.004H17.7213L20.5773 44.208C20.6986 44.5347 20.8526 44.7727 21.0393 44.922C21.2353 45.0713 21.4639 45.146 21.7253 45.146H21.8793V46H16.6993V45.146H17.2593C17.4086 45.146 17.5439 45.118 17.6653 45.062C17.7866 45.006 17.8473 44.8893 17.8473 44.712C17.8473 44.5813 17.8239 44.4507 17.7773 44.32C17.7399 44.18 17.7119 44.082 17.6933 44.026L17.2593 42.752H14.0673L13.7453 43.76C13.7173 43.872 13.6753 44.026 13.6193 44.222C13.5726 44.4087 13.5493 44.5673 13.5493 44.698C13.5493 44.838 13.5866 44.95 13.6613 45.034C13.7359 45.1087 13.8713 45.146 14.0673 45.146H14.7533V46H10.9453ZM14.3753 41.786H16.9513L16.1533 39.112C16.0879 38.8693 16.0133 38.6127 15.9293 38.342C15.8546 38.062 15.7893 37.768 15.7333 37.46C15.6586 37.7587 15.5793 38.048 15.4953 38.328C15.4113 38.5987 15.3319 38.8553 15.2573 39.098L14.3753 41.786ZM24.5045 46V45.146H24.9525C25.2232 45.146 25.4332 45.0947 25.5825 44.992C25.7412 44.8893 25.8205 44.642 25.8205 44.25V36.97H24.8685C24.4485 36.97 24.1592 37.04 24.0005 37.18C23.8418 37.32 23.7438 37.544 23.7065 37.852L23.5805 38.916H22.4885L22.5585 36.004H31.8965L31.9665 38.916H30.8745L30.7625 37.852C30.7252 37.544 30.6272 37.32 30.4685 37.18C30.3098 37.04 30.0205 36.97 29.6005 36.97H28.6485V44.306C28.6485 44.6793 28.7278 44.9127 28.8865 45.006C29.0452 45.0993 29.2552 45.146 29.5165 45.146H29.9645V46H24.5045ZM42.8362 46.14C41.6695 46.14 40.7502 45.8973 40.0782 45.412C39.4155 44.9173 39.0842 44.18 39.0842 43.2C39.0842 42.64 39.2148 42.1873 39.4762 41.842C39.7468 41.4873 40.0828 41.2073 40.4842 41.002C40.8855 40.7873 41.2915 40.6053 41.7022 40.456C41.3102 40.0173 41.0348 39.6253 40.8762 39.28C40.7268 38.9253 40.6522 38.5473 40.6522 38.146C40.6522 37.4087 40.8995 36.844 41.3942 36.452C41.8982 36.06 42.6308 35.864 43.5922 35.864C44.2455 35.864 44.7775 35.9573 45.1882 36.144C45.5988 36.3213 45.9022 36.5593 46.0982 36.858C46.3035 37.1567 46.4062 37.488 46.4062 37.852C46.4062 38.3933 46.2382 38.8507 45.9022 39.224C45.5755 39.588 45.0948 39.9287 44.4602 40.246L46.2242 42.122C46.2615 41.9633 46.2895 41.7487 46.3082 41.478C46.3362 41.2073 46.3502 40.932 46.3502 40.652V39.98H49.6682V40.834H49.3742C49.1688 40.834 48.9635 40.848 48.7582 40.876C48.5622 40.8947 48.3895 40.9647 48.2402 41.086C48.0908 41.198 47.9742 41.3987 47.8902 41.688C47.7688 42.136 47.5775 42.6353 47.3162 43.186L48.7722 44.712C48.9495 44.8893 49.1408 45.006 49.3462 45.062C49.5608 45.118 49.7428 45.146 49.8922 45.146H50.0182V46H46.8542L45.8882 45.02C45.5895 45.3187 45.1788 45.58 44.6562 45.804C44.1335 46.028 43.5268 46.14 42.8362 46.14ZM43.7882 39.532C44.0588 39.3173 44.2502 39.0793 44.3622 38.818C44.4835 38.5567 44.5442 38.2393 44.5442 37.866C44.5442 37.53 44.4695 37.2733 44.3202 37.096C44.1802 36.9093 43.9888 36.816 43.7462 36.816C43.1955 36.816 42.9202 37.1707 42.9202 37.88C42.9202 38.1693 42.9995 38.4493 43.1582 38.72C43.3262 38.9813 43.5362 39.252 43.7882 39.532ZM43.4522 45.034C43.8255 45.034 44.1615 44.95 44.4602 44.782C44.7682 44.614 45.0108 44.4273 45.1882 44.222L42.3742 41.212C42.1128 41.4453 41.9448 41.73 41.8702 42.066C41.7955 42.3927 41.7582 42.7473 41.7582 43.13C41.7582 43.7273 41.9122 44.194 42.2202 44.53C42.5282 44.866 42.9388 45.034 43.4522 45.034ZM56.9694 46V45.146H57.6974C57.8934 45.146 58.0334 45.076 58.1174 44.936C58.2107 44.796 58.2574 44.6093 58.2574 44.376V37.628C58.2574 37.3293 58.1874 37.1287 58.0474 37.026C57.9167 36.914 57.7861 36.858 57.6554 36.858H56.9694V36.004H61.5614C62.9801 36.004 64.0627 36.1907 64.8094 36.564C65.5561 36.928 65.9294 37.5533 65.9294 38.44C65.9294 38.8693 65.8314 39.2333 65.6354 39.532C65.4394 39.8307 65.1827 40.0733 64.8654 40.26C64.5481 40.4373 64.2027 40.5727 63.8294 40.666V40.736C64.5667 40.8573 65.1687 41.1187 65.6354 41.52C66.1021 41.9213 66.3354 42.4907 66.3354 43.228C66.3354 44.152 65.9761 44.8473 65.2574 45.314C64.5481 45.7713 63.4561 46 61.9814 46H56.9694ZM61.4354 40.288C61.9581 40.288 62.3501 40.1573 62.6114 39.896C62.8821 39.6347 63.0174 39.196 63.0174 38.58C63.0174 37.9733 62.8774 37.5533 62.5974 37.32C62.3174 37.0867 61.9207 36.97 61.4074 36.97H61.0434V40.288H61.4354ZM61.7714 45.034C62.2661 45.034 62.6534 44.8987 62.9334 44.628C63.2134 44.348 63.3534 43.8673 63.3534 43.186C63.3534 41.898 62.8354 41.254 61.7994 41.254H61.0434V45.034H61.7714ZM67.9761 46V45.146H68.0741C68.3168 45.146 68.5315 45.0853 68.7181 44.964C68.9141 44.8427 69.0868 44.5813 69.2361 44.18L72.2181 36.004H74.7521L77.6081 44.208C77.7295 44.5347 77.8835 44.7727 78.0701 44.922C78.2661 45.0713 78.4948 45.146 78.7561 45.146H78.9101V46H73.7301V45.146H74.2901C74.4395 45.146 74.5748 45.118 74.6961 45.062C74.8175 45.006 74.8781 44.8893 74.8781 44.712C74.8781 44.5813 74.8548 44.4507 74.8081 44.32C74.7708 44.18 74.7428 44.082 74.7241 44.026L74.2901 42.752H71.0981L70.7761 43.76C70.7481 43.872 70.7061 44.026 70.6501 44.222C70.6035 44.4087 70.5801 44.5673 70.5801 44.698C70.5801 44.838 70.6175 44.95 70.6921 45.034C70.7668 45.1087 70.9021 45.146 71.0981 45.146H71.7841V46H67.9761ZM71.4061 41.786H73.9821L73.1841 39.112C73.1188 38.8693 73.0441 38.6127 72.9601 38.342C72.8855 38.062 72.8201 37.768 72.7641 37.46C72.6895 37.7587 72.6101 38.048 72.5261 38.328C72.4421 38.5987 72.3628 38.8553 72.2881 39.098L71.4061 41.786ZM80.6053 46V45.146H81.2073C81.394 45.146 81.5527 45.09 81.6833 44.978C81.8233 44.8567 81.8933 44.6793 81.8933 44.446V37.516C81.8933 37.3013 81.8373 37.138 81.7253 37.026C81.6133 36.914 81.4687 36.858 81.2913 36.858H80.6053V36.004H85.7153V36.858H85.2393C84.8753 36.858 84.6933 37.082 84.6933 37.53V40.932L86.5693 38.846C86.8587 38.5287 87.0733 38.258 87.2133 38.034C87.3627 37.81 87.4373 37.5767 87.4373 37.334C87.4373 37.1567 87.372 37.0307 87.2413 36.956C87.12 36.8813 86.896 36.844 86.5693 36.844V36.004H90.8113V36.844C90.3913 36.844 90.0133 36.9607 89.6773 37.194C89.3413 37.418 89.0147 37.6933 88.6973 38.02L86.8493 39.91L89.5793 43.914C89.794 44.2313 89.9807 44.4787 90.1393 44.656C90.298 44.8333 90.452 44.9593 90.6013 45.034C90.76 45.1087 90.9467 45.146 91.1613 45.146H91.2453V46H89.9013C89.3973 46 88.9727 45.972 88.6273 45.916C88.2913 45.8507 88.002 45.748 87.7593 45.608C87.5167 45.468 87.2973 45.2813 87.1013 45.048C86.9053 44.8147 86.7 44.5207 86.4853 44.166L85.0013 41.73L84.6933 41.926V44.474C84.6933 44.6887 84.7587 44.8567 84.8893 44.978C85.0293 45.09 85.1927 45.146 85.3793 45.146H85.7153V46H80.6053ZM92.9428 46V45.146H93.6568C93.8435 45.146 93.9835 45.0807 94.0768 44.95C94.1795 44.8193 94.2308 44.656 94.2308 44.46V37.614C94.2308 37.2873 94.1702 37.082 94.0488 36.998C93.9275 36.9047 93.7875 36.858 93.6288 36.858H92.9428V36.004H101.245L101.287 38.678H100.125L100.055 37.978C100.017 37.6047 99.9335 37.3433 99.8028 37.194C99.6722 37.0447 99.4435 36.97 99.1168 36.97H97.0168V40.302H100.321V41.254H97.0168V45.034H99.5228C99.8215 45.034 100.045 44.9453 100.195 44.768C100.353 44.5813 100.456 44.334 100.503 44.026L100.615 43.326H101.763L101.665 46H92.9428ZM103.79 46V45.146H104.322C104.499 45.146 104.667 45.104 104.826 45.02C104.994 44.936 105.078 44.7213 105.078 44.376V37.642C105.078 37.4087 105.031 37.2407 104.938 37.138C104.854 37.026 104.751 36.9513 104.63 36.914C104.518 36.8767 104.415 36.858 104.322 36.858H103.79V36.004H108.844C109.889 36.004 110.72 36.116 111.336 36.34C111.952 36.5547 112.391 36.8627 112.652 37.264C112.923 37.656 113.058 38.118 113.058 38.65C113.058 39.182 112.965 39.6207 112.778 39.966C112.601 40.3113 112.363 40.582 112.064 40.778C111.765 40.974 111.434 41.1233 111.07 41.226L112.666 43.928C112.918 44.3573 113.133 44.67 113.31 44.866C113.497 45.0527 113.707 45.146 113.94 45.146H114.038V46H113.38C112.568 46 111.882 45.9207 111.322 45.762C110.762 45.6033 110.351 45.2627 110.09 44.74L108.62 41.716H107.878V44.376C107.878 44.7213 107.939 44.936 108.06 45.02C108.191 45.104 108.359 45.146 108.564 45.146H108.9V46H103.79ZM108.508 40.792C109.059 40.792 109.455 40.6287 109.698 40.302C109.95 39.966 110.076 39.4713 110.076 38.818C110.076 38.146 109.941 37.6653 109.67 37.376C109.399 37.0867 109.003 36.942 108.48 36.942H107.878V40.792H108.508ZM117.365 46V45.146H117.855C118.154 45.146 118.392 45.09 118.569 44.978C118.747 44.8567 118.835 44.6 118.835 44.208V42.78L116.245 37.6C116.105 37.32 115.979 37.1287 115.867 37.026C115.755 36.914 115.55 36.858 115.251 36.858H115.069V36.004H120.375V36.858H120.319C120.021 36.858 119.778 36.928 119.591 37.068C119.414 37.1987 119.325 37.3853 119.325 37.628C119.325 37.7307 119.339 37.852 119.367 37.992C119.405 38.132 119.456 38.272 119.521 38.412L120.557 40.47C120.688 40.722 120.786 40.9367 120.851 41.114C120.926 41.2913 121.001 41.4873 121.075 41.702C121.169 41.45 121.276 41.184 121.397 40.904C121.528 40.6147 121.663 40.3207 121.803 40.022L122.559 38.44C122.662 38.1973 122.723 38.0107 122.741 37.88C122.769 37.74 122.783 37.6467 122.783 37.6C122.783 37.3293 122.704 37.138 122.545 37.026C122.387 36.914 122.139 36.858 121.803 36.858H121.537V36.004H125.387V36.858H125.219C125.042 36.858 124.897 36.8907 124.785 36.956C124.673 37.012 124.566 37.1193 124.463 37.278C124.361 37.4273 124.235 37.6467 124.085 37.936L121.663 42.808V44.236C121.663 44.6187 121.743 44.866 121.901 44.978C122.06 45.09 122.247 45.146 122.461 45.146H123.133V46H117.365Z" fill="#FFEFE5"/>
<g clip-path="url(#clip0)">
<path d="M74.4427 12.7678C72.7906 14.2921 71.644 16.1439 71.2247 18.0137C71.1015 18.5644 70.6126 18.9387 70.071 18.9387C69.9852 18.9387 69.8983 18.9293 69.8112 18.9097C69.1733 18.7669 68.7722 18.1338 68.9151 17.4962C69.3697 15.468 70.5061 13.412 72.2171 11.6386C71.1159 11.1677 69.9462 10.7881 68.7243 10.505C67.9055 10.9043 67.2106 11.3365 66.6397 11.7477C64.3179 13.419 62.6894 15.7028 62.1713 18.0137C62.0479 18.5644 61.5592 18.9387 61.0176 18.9387C60.9318 18.9387 60.8449 18.9293 60.7578 18.9097C60.1198 18.7669 59.7188 18.1338 59.8616 17.4962C60.468 14.7912 62.2874 12.0357 65.0665 9.96827C64.5504 9.93454 64.0285 9.91608 63.5013 9.91608C62.9019 9.91608 62.3103 9.94081 61.7257 9.98425C60.3656 10.5048 59.2722 11.1486 58.4401 11.7477C56.1182 13.419 54.4896 15.7028 53.9718 18.0137C53.8484 18.5644 53.3597 18.9387 52.8179 18.9387C52.7323 18.9387 52.6452 18.9293 52.5581 18.9097C51.9203 18.7669 51.519 18.1338 51.6621 17.4962C52.127 15.4216 53.3053 13.3177 55.0822 11.5169C51.132 13.132 48.0143 15.8815 46.3796 19.372C45.7973 20.6149 45.8909 22.0695 46.628 23.2274C47.3649 24.3854 48.6425 25.0838 50.0151 25.0838H76.9876C78.3595 25.0838 79.636 24.3831 80.3727 23.2258C81.1093 22.0684 81.2049 20.6144 80.6231 19.3718C79.3543 16.6634 77.1929 14.4008 74.4427 12.7678Z" fill="#FFEFE5"/>
</g>
<defs>
<clipPath id="clip0">
<rect width="35" height="35" fill="white" transform="translate(46)"/>
</clipPath>
</defs>
</svg>
