<svg width="65" height="68" viewBox="0 0 65 68" fill="none" xmlns="http://www.w3.org/2000/svg">
<path fill-rule="evenodd" clip-rule="evenodd" d="M40.3518 47.6254C36.2357 50.3637 31.2941 51.9594 25.9797 51.9594C11.6315 51.9594 0 40.3279 0 25.9797C0 11.6315 11.6315 0 25.9797 0C40.3279 0 51.9594 11.6315 51.9594 25.9797C51.9594 32.8456 49.296 39.0894 44.946 43.7344L64.9056 63.6939L60.663 67.9366L40.3518 47.6254ZM45.0315 25.9797C45.0315 36.5018 36.5017 45.0315 25.9797 45.0315C15.4577 45.0315 6.92792 36.5018 6.92792 25.9797C6.92792 15.4577 15.4577 6.92796 25.9797 6.92796C36.5017 6.92796 45.0315 15.4577 45.0315 25.9797Z" fill="white"/>
</svg>
