<svg width="80" height="81" viewBox="0 0 80 81" xmlns="http://www.w3.org/2000/svg">
<path d="M37.4837 11.9051C37.4837 13.4441 38.0831 14.891 39.1714 15.9793C39.6291 16.4371 40.3711 16.4369 40.8287 15.9793C41.2864 15.5216 41.2864 14.7796 40.8287 14.3222C39.4959 12.9894 39.4959 10.8209 40.8287 9.48811C43.0753 7.24163 43.0753 3.58614 40.8287 1.33951C40.3709 0.881867 39.6291 0.881867 39.1714 1.33951C38.7138 1.79715 38.7138 2.53915 39.1714 2.99663C40.5042 4.3294 40.5042 6.49807 39.1714 7.83083C38.083 8.91907 37.4837 10.3661 37.4837 11.9051ZM69.7658 38.4836C68.4183 38.4836 67.1084 38.7406 65.8719 39.2477C64.3484 35.6876 61.7439 32.4677 58.3361 29.9328C57.817 29.5466 57.0828 29.6544 56.6964 30.1736C56.31 30.693 56.418 31.427 56.9372 31.8132C60.033 34.116 62.3866 37.0268 63.7433 40.2307C64.2281 41.3759 65.5609 41.9158 66.7158 41.4349C67.6823 41.0317 68.7084 40.8273 69.7659 40.8273C74.1167 40.8273 77.6562 44.3368 77.6562 48.6507C77.6562 52.9647 74.1167 56.4742 69.7658 56.4742C67.6697 56.4742 65.6956 55.6664 64.2072 54.1998C63.3314 53.3371 61.9066 53.3371 61.0308 54.1999C59.5428 55.6666 57.5688 56.4742 55.4723 56.4742C53.1561 56.4742 50.9653 55.4699 49.4619 53.7187C49.0278 53.2132 48.3989 52.9232 47.7364 52.9232C47.7364 52.9232 47.7364 52.9232 47.7362 52.9232C47.0739 52.9232 46.4447 53.2129 46.0105 53.7188C44.5072 55.4699 42.3164 56.4742 40 56.4742C37.6836 56.4742 35.4928 55.4699 33.9894 53.7185C33.5552 53.2131 32.9261 52.9231 32.2636 52.9232C31.6011 52.9232 30.9722 53.2131 30.5381 53.7187C29.0347 55.4699 26.8439 56.4742 24.5277 56.4742C22.4313 56.4742 20.4572 55.6666 18.9691 54.1998C18.0933 53.3371 16.6683 53.337 15.7928 54.1999C14.3044 55.6664 12.3303 56.4742 10.2342 56.4742C5.88328 56.4742 2.34375 52.9647 2.34375 48.6507C2.34375 44.3368 5.88328 40.8273 10.2342 40.8273C11.2917 40.8273 12.3178 41.0317 13.2844 41.4349C14.4391 41.9166 15.772 41.3757 16.2567 40.2307C19.7434 31.9965 29.2852 26.4641 40 26.4641C44.3645 26.4641 48.663 27.3895 52.4308 29.1404C53.0181 29.4133 53.7147 29.1585 53.9875 28.5715C54.2602 27.9846 54.0055 27.2878 53.4186 27.015C49.3434 25.1213 44.7034 24.1204 40 24.1204C28.3862 24.1204 18.0006 30.1966 14.1281 39.2475C12.8916 38.7405 11.5817 38.4835 10.2342 38.4835C4.59109 38.4836 0 43.0445 0 48.6507C0 53.3701 3.25375 57.3481 7.64953 58.4888L13.23 74.0133C14.7303 78.1883 18.7188 80.9933 23.1547 80.9933H30.1183C30.7656 80.9933 31.2902 80.4688 31.2902 79.8215C31.2902 79.1742 30.7656 78.6497 30.1183 78.6497H23.1547C19.7045 78.6497 16.6025 76.4679 15.4356 73.2206L10.2581 58.8172C12.9383 58.8112 15.4637 57.7856 17.3809 55.9249C19.3036 57.7909 21.8384 58.8179 24.5277 58.8179C27.5013 58.8179 30.3164 57.5387 32.2639 55.3061C34.2113 57.5389 37.0261 58.8179 40 58.8179C42.9741 58.8179 45.7891 57.5389 47.7362 55.3061C49.6838 57.5389 52.4986 58.8179 55.4723 58.8179C58.1617 58.8179 60.6966 57.7912 62.6191 55.9249C64.5364 57.7856 67.0617 58.8112 69.7419 58.8172L64.5642 73.2208C63.3973 76.4679 60.2955 78.6497 56.8453 78.6497H35.5872C34.9398 78.6497 34.4153 79.1742 34.4153 79.8215C34.4153 80.4688 34.9398 80.9933 35.5872 80.9933H56.8453C61.2814 80.9933 65.2697 78.1883 66.77 74.0134L72.3506 58.4888C76.7463 57.3481 80 53.3701 80 48.6507C80 43.0445 75.4089 38.4836 69.7658 38.4836ZM46.2025 17.1994C46.6602 17.657 47.402 17.6569 47.8597 17.1994C48.3175 16.7418 48.3175 15.9999 47.8598 15.5423C47.005 14.6875 47.005 13.2966 47.8598 12.4418C49.6283 10.6732 49.6283 7.79552 47.8598 6.02683C47.4022 5.5692 46.6602 5.56904 46.2027 6.02683C45.7448 6.48447 45.7448 7.22632 46.2025 7.68396C47.0573 8.53877 47.0573 9.92966 46.2025 10.7845C44.4341 12.553 44.4341 15.4309 46.2025 17.1994ZM32.14 17.1994C32.5977 17.657 33.3395 17.6569 33.7972 17.1994C34.255 16.7418 34.255 15.9999 33.7973 15.5423C32.9425 14.6875 32.9425 13.2966 33.7973 12.4418C35.5658 10.6732 35.5658 7.79552 33.7973 6.02683C33.3397 5.5692 32.5977 5.56904 32.1402 6.02683C31.6823 6.48447 31.6823 7.22632 32.14 7.68396C32.9948 8.53877 32.9948 9.92966 32.14 10.7845C30.3716 12.553 30.3716 15.4309 32.14 17.1994ZM21.0398 41.908C21.548 42.4161 22.2367 42.6596 23.0267 42.6596C24.5867 42.6596 26.5413 41.7101 28.2766 39.9747C29.4028 38.8484 30.2556 37.5576 30.6777 36.3396C31.1978 34.8388 31.0319 33.5596 30.2102 32.738C28.6986 31.2267 25.5875 32.0574 22.9734 34.6716H22.9736C21.8473 35.7978 20.9945 37.0887 20.5725 38.3066C20.0522 39.8073 20.2181 41.0865 21.0398 41.908ZM22.7869 39.0738C23.0908 38.1969 23.7628 37.1963 24.6306 36.3285H24.6308C26.1664 34.7928 27.5898 34.3136 28.2297 34.3136C28.3903 34.3136 28.5016 34.3438 28.5528 34.395C28.6298 34.472 28.7094 34.8611 28.4631 35.572C28.1592 36.4488 27.4872 37.4494 26.6192 38.3172C24.698 40.2384 22.9528 40.506 22.697 40.2506C22.6202 40.1737 22.5406 39.7847 22.7869 39.0738ZM36.25 37.323C36.25 41.0196 37.862 43.8072 40 43.8072C42.138 43.8072 43.75 41.0196 43.75 37.323C43.75 33.6265 42.138 30.8389 40 30.8389C37.862 30.8389 36.25 33.6265 36.25 37.323ZM41.4062 37.323C41.4062 40.0398 40.3613 41.4635 40 41.4635C39.6387 41.4635 38.5938 40.0398 38.5938 37.323C38.5938 34.6063 39.6387 33.1826 40 33.1826C40.3613 33.1826 41.4062 34.6063 41.4062 37.323ZM49.1647 32.738C48.3431 33.5596 48.1772 34.8386 48.6973 36.3396C49.1194 37.5576 49.9722 38.8484 51.0983 39.9747C52.8337 41.7101 54.788 42.6597 56.3483 42.6596C57.1381 42.6596 57.8272 42.416 58.3353 41.908C59.1569 41.0865 59.3228 39.8075 58.8027 38.3064C58.3806 37.0885 57.5278 35.7976 56.4017 34.6714C53.7877 32.0574 50.6769 31.2265 49.1647 32.738ZM54.7444 36.3287C55.6122 37.1965 56.2841 38.1971 56.5881 39.0739C56.8344 39.7847 56.7548 40.1739 56.678 40.2507C56.4219 40.5067 54.6767 40.2384 52.7555 38.3174C51.8877 37.4496 51.2158 36.449 50.9117 35.5722C50.6655 34.8614 50.745 34.4722 50.8219 34.3953C50.8733 34.3439 50.9845 34.3138 51.1452 34.3138C51.7853 34.3138 53.2088 34.793 54.7444 36.3287C54.7442 36.3287 54.7442 36.3287 54.7444 36.3287Z"/>
</svg>
