<svg width="46" height="50" viewBox="0 0 46 50" xmlns="http://www.w3.org/2000/svg">
<path d="M44.3251 11.4636C44.3722 11.1109 44.3963 10.7527 44.3963 10.3946C44.3963 5.97377 40.7936 2.37718 36.3653 2.37718C35.2847 2.37718 34.2417 2.58684 33.2594 2.99953C32.2872 2.5926 31.2355 2.37718 30.1535 2.37718C29.0355 2.37718 27.9499 2.60735 26.9509 3.04113C26.7422 2.78938 26.5354 2.48001 26.3208 2.15736C25.7336 1.27457 25.0681 0.274004 23.9835 0.0461776C22.9582 -0.168564 22.0146 0.424294 21.1023 0.997816C20.5032 1.37437 19.8837 1.76381 19.3952 1.80131C18.9066 1.83881 18.2346 1.54741 17.5852 1.26597C16.5965 0.83737 15.5742 0.394216 14.5926 0.762079C13.5556 1.15172 13.05 2.24232 12.6037 3.2045C12.3205 3.81513 12.0278 4.44656 11.6795 4.71374C11.3065 4.99919 10.6031 5.12741 9.92282 5.25143C8.88925 5.4398 7.7178 5.65337 7.10307 6.53997C6.39254 7.56466 6.76938 8.92566 6.97563 10.0811C6.42554 10.3697 5.91589 10.7421 5.46394 11.1933C4.28819 12.3672 3.64104 13.9279 3.64153 15.5878C3.64201 17.2468 4.28946 18.8063 5.46463 19.9792C6.01198 20.5255 6.39537 21.1913 6.59302 21.9172L3.34505 28.7518C3.17142 29.1171 3.32679 29.554 3.69221 29.7276C4.0506 29.8979 4.49268 29.7505 4.66806 29.3805L6.74741 25.0049V36.7037L1.84167 36.2778C1.60905 36.2483 1.50163 36.0652 1.59401 35.8492L3.21771 32.4325C3.39134 32.0672 3.23597 31.6303 2.87055 31.4567C2.50503 31.2831 2.06822 31.4385 1.89469 31.8038L0.270999 35.2205C-0.252426 36.2969 0.501462 37.6414 1.71481 37.7371L6.74741 38.1741V46.1689C6.74741 48.2822 8.46924 50.0014 10.5858 50.0014H38.9534C41.0698 50.0014 42.7918 48.2822 42.7918 46.1689V34.8084C42.7918 34.4039 42.4639 34.076 42.0594 34.076C41.6549 34.076 41.327 34.4039 41.327 34.8084V46.1686C41.327 47.4742 40.2622 48.5363 38.9534 48.5363H10.5858C9.27704 48.5363 8.21222 47.4742 8.21222 46.1686V23.0696C8.21222 21.5104 7.60393 20.0445 6.49937 18.9421C5.60134 18.0459 5.10663 16.8544 5.10624 15.5871C5.10585 14.319 5.60037 13.1265 6.49878 12.2296C7.39915 11.3307 8.58379 10.8367 9.86433 10.838H39.6746C42.2982 10.838 44.4328 12.9678 44.4328 15.5857C44.4328 16.8535 43.938 18.0456 43.0396 18.9422C41.9351 20.0446 41.3268 21.5104 41.3268 23.0697V31.3906C41.3268 31.795 41.6547 32.123 42.0592 32.123C42.4637 32.123 42.7916 31.795 42.7916 31.3906V23.0697C42.7916 21.9022 43.2471 20.8047 44.0744 19.979C45.25 18.8056 45.8975 17.2453 45.8975 15.5857C45.8978 14.0049 45.3025 12.5612 44.3251 11.4636ZM9.86443 9.37321C9.35331 9.37321 8.85175 9.43483 8.36778 9.55357C8.2172 8.76004 8.01095 7.80098 8.30665 7.37452C8.57637 6.98557 9.39432 6.83645 10.1854 6.69231C11.0364 6.53724 11.9164 6.37679 12.5704 5.87622C13.205 5.38922 13.5748 4.59177 13.9325 3.8206C14.2764 3.07882 14.6322 2.31185 15.1071 2.13343C15.5343 1.97338 16.2807 2.29691 17.0024 2.60989C17.8152 2.96222 18.6546 3.32696 19.5066 3.26183C20.3567 3.19659 21.132 2.7093 21.8818 2.23802C22.5479 1.81928 23.2366 1.38628 23.6827 1.47984C24.1802 1.58433 24.6484 2.28812 25.101 2.96867C25.2774 3.23399 25.4571 3.50342 25.6495 3.75703C25.2727 4.01259 24.9141 4.29989 24.5801 4.62117C23.2506 5.90005 22.4168 7.5671 22.1874 9.3733H9.86443V9.37321ZM26.8484 9.37321C27.2877 7.96162 28.6134 6.9425 30.1535 6.9425C31.6936 6.9425 33.0193 7.96172 33.4586 9.37321H26.8484ZM34.971 9.37321C34.4966 7.14103 32.4996 5.47769 30.1535 5.47769C27.8074 5.47769 25.8103 7.14103 25.336 9.37321H23.6667C24.166 6.08383 26.9048 3.84199 30.1536 3.84199C33.3476 3.84199 36.1308 6.04155 36.6395 9.37321H34.971ZM39.6748 9.37321H38.1186C37.8893 7.5669 37.0556 5.90005 35.7264 4.62117C35.4895 4.39324 35.2395 4.18329 34.9803 3.98818C35.4312 3.89169 35.8937 3.84199 36.3653 3.84199C39.9518 3.84199 42.8741 6.72678 42.929 10.293C41.9814 9.71021 40.8669 9.37321 39.6748 9.37321ZM16.0685 43.0686C16.0685 44.3272 17.0937 45.3511 18.3539 45.3511C19.614 45.3511 20.6393 44.3272 20.6393 43.0686C20.6393 41.8102 19.614 40.7862 18.3539 40.7862C17.0937 40.7862 16.0685 41.8102 16.0685 43.0686ZM19.1745 43.0686C19.1745 43.5195 18.8063 43.8863 18.3539 43.8863C17.9014 43.8863 17.5333 43.5195 17.5333 43.0686C17.5333 42.6178 17.9014 42.2511 18.3539 42.2511C18.8063 42.2511 19.1745 42.6178 19.1745 43.0686ZM12.142 42.3362C10.8819 42.3362 9.85661 43.3601 9.85661 44.6187C9.85661 45.8771 10.8819 46.901 12.142 46.901C13.4021 46.901 14.4274 45.8771 14.4274 44.6187C14.4274 43.3601 13.4021 42.3362 12.142 42.3362ZM12.142 45.4362C11.6896 45.4362 11.3214 45.0694 11.3214 44.6187C11.3214 44.1678 11.6896 43.801 12.142 43.801C12.5944 43.801 12.9626 44.1678 12.9626 44.6187C12.9626 45.0694 12.5944 45.4362 12.142 45.4362ZM12.142 36.1364C10.8819 36.1364 9.85661 37.1603 9.85661 38.4187C9.85661 39.6773 10.8819 40.7012 12.142 40.7012C13.4021 40.7012 14.4274 39.6773 14.4274 38.4187C14.4274 37.1602 13.4021 36.1364 12.142 36.1364ZM12.142 39.2363C11.6896 39.2363 11.3214 38.8695 11.3214 38.4186C11.3214 37.9679 11.6896 37.6011 12.142 37.6011C12.5944 37.6011 12.9626 37.9679 12.9626 38.4186C12.9626 38.8695 12.5944 39.2363 12.142 39.2363Z"/>
</svg>
