<svg width="16" height="16" viewBox="0 0 16 16" fill="none" xmlns="http://www.w3.org/2000/svg">
<path fill-rule="evenodd" clip-rule="evenodd" d="M16 0H0V16H16V0ZM11.6729 9.07966L13.1273 10.5072C13.4909 10.864 13.4909 11.4758 13.1273 11.8837L12.1404 12.8524C11.1015 13.872 8.34853 12.7504 5.9072 10.3542C3.46588 7.95805 2.37508 5.25597 3.36199 4.23632L4.34891 3.26766C4.71251 2.91078 5.33583 2.91078 5.75137 3.26766L7.20578 4.69517C7.72521 5.20499 7.51744 6.07169 6.84218 6.27562C6.37469 6.42855 6.06303 6.93838 6.21886 7.39724C6.47858 8.46787 7.88104 9.79341 8.9199 10.0483C9.38739 10.1503 9.90682 9.8954 10.0626 9.43654C10.2704 8.77378 11.1534 8.56983 11.6729 9.07966Z" fill="#EF8538"/>
</svg>
