<svg width="16" height="16" viewBox="0 0 16 16" fill="none" xmlns="http://www.w3.org/2000/svg">
<path fill-rule="evenodd" clip-rule="evenodd" d="M0 0H16V16H0V0ZM10.2337 9.34649L8.74645 8.2184V5.92046C8.74645 5.6894 8.56178 5.50264 8.33332 5.50264C8.10486 5.50264 7.9202 5.6894 7.9202 5.92046V8.42733C7.9202 8.55894 7.98134 8.68304 8.08545 8.76159L9.73791 10.015C9.81226 10.0714 9.89903 10.0986 9.98536 10.0986C10.1114 10.0986 10.2353 10.0413 10.3163 9.93104C10.4535 9.74676 10.4163 9.4848 10.2337 9.34649ZM3 8.39394C3 5.41954 5.39235 3 8.33333 3C11.2743 3 13.6667 5.41954 13.6667 8.39394C13.6667 11.3683 11.2743 13.7879 8.33333 13.7879C5.39235 13.7879 3 11.3683 3 8.39394ZM3.82623 8.39394C3.82623 10.9071 5.84844 12.9523 8.33333 12.9523C10.8182 12.9523 12.8404 10.9071 12.8404 8.39394C12.8404 5.88081 10.8186 3.83562 8.33333 3.83562C5.84844 3.83562 3.82623 5.88081 3.82623 8.39394Z" fill="#EF8538"/>
</svg>
