<svg width="35" height="35" viewBox="0 0 35 35" xmlns="http://www.w3.org/2000/svg">
<path fill-rule="evenodd" clip-rule="evenodd" d="M35 0H0V35H35V0ZM27.6668 22.4552C27.6741 22.4696 27.6796 22.4803 27.6836 22.4875C28.3705 23.7027 26.9215 23.7981 26.9215 23.7981L24.1518 23.8395C24.1518 23.8395 23.5569 23.9653 22.7741 23.3916C22.3647 23.0916 21.9645 22.6021 21.5831 22.1357C20.9997 21.4223 20.4605 20.7628 20.0005 20.9183C19.228 21.1796 19.2526 22.9534 19.2526 22.9534C19.2526 22.9534 19.2591 23.3322 19.0828 23.534C18.8923 23.7538 18.5177 23.7981 18.5177 23.7981H17.2787C17.2787 23.7981 14.544 23.9736 12.1345 21.2985C9.50868 18.3801 7.1887 12.5916 7.1887 12.5916C7.1887 12.5916 7.0552 12.2128 7.20036 12.029C7.36367 11.823 7.80822 11.8091 7.80822 11.8091L10.7711 11.7898C10.7711 11.7898 11.051 11.8396 11.2506 11.9958C11.4152 12.1243 11.5072 12.3649 11.5072 12.3649C11.5072 12.3649 11.9868 13.6575 12.6206 14.8257C13.8583 17.1082 14.4351 17.6073 14.8563 17.3626C15.4694 17.0059 15.2853 14.1372 15.2853 14.1372C15.2853 14.1372 15.297 13.0949 14.9768 12.6317C14.7293 12.2723 14.2627 12.1672 14.0566 12.1382C13.8894 12.1147 14.1629 11.7013 14.518 11.5161C15.0507 11.2382 15.993 11.2216 17.105 11.234C17.9721 11.2437 18.2209 11.3018 18.5605 11.3889C19.3471 11.5912 19.3226 12.2404 19.2698 13.6415C19.254 14.0596 19.2358 14.5448 19.2358 15.105C19.2358 15.2314 19.2323 15.3662 19.2287 15.5049C19.2102 16.2217 19.1891 17.0427 19.6311 17.3474C19.8579 17.5036 20.4139 17.3709 21.802 14.8561C22.4604 13.6644 22.9542 12.2626 22.9542 12.2626C22.9542 12.2626 23.0618 12.0137 23.229 11.9059C23.4014 11.7967 23.6321 11.8299 23.6321 11.8299L26.7479 11.8105C26.7479 11.8105 27.6849 11.6916 27.8366 12.1423C27.996 12.6151 27.4866 13.7211 26.2126 15.5322C24.9985 17.258 24.4105 17.8882 24.4702 18.4494C24.5135 18.8551 24.8954 19.2248 25.6241 19.9465C27.1642 21.4711 27.5717 22.269 27.6668 22.4552Z"/>
</svg>
