<svg width="35" height="35" viewBox="0 0 35 35" xmlns="http://www.w3.org/2000/svg">
<path fill-rule="evenodd" clip-rule="evenodd" d="M35 0H0V35H35V0ZM17.4454 7.36506H17.4503C22.7745 7.36506 27.1041 11.8503 27.1041 17.3629C27.1041 22.8754 22.7745 27.3607 17.4503 27.3607C15.4864 27.3607 13.665 26.7558 12.1381 25.7085L8.42649 26.937L9.6299 23.2228C8.47236 21.5769 7.79159 19.5499 7.79159 17.3629C7.79159 11.8491 12.1212 7.36506 17.4454 7.36506ZM21.174 22.8942C21.9115 22.7292 22.8361 22.1643 23.069 21.4832C23.302 20.8009 23.302 20.2197 23.2344 20.096C23.1798 19.9979 23.0507 19.9335 22.8581 19.8375C22.8079 19.8125 22.7534 19.7853 22.6948 19.7548C22.4112 19.6086 21.0315 18.9025 20.7708 18.8088C20.5149 18.7088 20.2711 18.7438 20.078 19.0263C20.0412 19.0795 20.0046 19.1329 19.9682 19.1859C19.7352 19.5252 19.5104 19.8525 19.3236 20.061C19.1534 20.2485 18.8758 20.2722 18.6428 20.1723C18.6174 20.1613 18.5883 20.1491 18.5557 20.1355C18.1868 19.9812 17.3687 19.6391 16.3784 18.7263C15.5432 17.9565 14.9759 16.9979 14.8117 16.7105C14.6505 16.4222 14.7895 16.2531 14.918 16.0968L14.9252 16.0882C15.008 15.982 15.0884 15.8937 15.1692 15.8049C15.2273 15.741 15.2856 15.6769 15.3452 15.6058C15.3541 15.5952 15.3627 15.5849 15.371 15.575C15.4976 15.4243 15.5729 15.3346 15.6578 15.1471C15.7544 14.9534 15.6856 14.7534 15.6168 14.606C15.5694 14.5027 15.277 13.7681 15.026 13.1376C14.9186 12.8677 14.8187 12.6169 14.7489 12.4427C14.5618 11.9791 14.4194 11.9616 14.1358 11.9491C14.127 11.9486 14.1183 11.9481 14.1094 11.9477C14.0197 11.943 13.921 11.9378 13.8123 11.9378C13.4429 11.9378 13.0579 12.0503 12.8249 12.2965C12.8168 12.3051 12.8083 12.314 12.7995 12.3233C12.5015 12.6371 11.8376 13.3362 11.8376 14.7297C11.8376 16.1259 12.7944 17.4772 12.9714 17.7272C12.9763 17.734 12.9806 17.7401 12.9842 17.7453C12.9949 17.7598 13.015 17.7899 13.0442 17.8337C13.4057 18.3757 15.1664 21.0156 17.7919 22.1418C20.0104 23.0941 20.6694 23.0054 21.174 22.8942Z"/>
</svg>
